<svg xmlns="http://www.w3.org/2000/svg" width="128" height="128" viewBox="0 0 128 128">
  <!-- Hexagon Background - Flat Hive Red -->
  <path d="M64 8 L114 36 V92 L64 120 L14 92 V36 Z" fill="#E31337" stroke="none"/>
  
  <!-- Toolbox Icon - White -->
  <g fill="white">
     <!-- Handle -->
     <path d="M54 36 H74 C76 36 78 38 78 40 V46 H50 V40 C50 38 52 36 54 36 Z" />
     <!-- Box Body -->
     <path d="M34 46 H94 C97 46 99 48 99 51 V87 C99 90 97 92 94 92 H34 C31 92 29 90 29 87 V51 C29 48 31 46 34 46 Z M 60 46 V 56 H 68 V 46 Z" />
  </g>
</svg>